<svg id="svg" version="1.1" xmlns="http://www.w3.org/2000/svg" xmlns:xlink="http://www.w3.org/1999/xlink" viewBox="75,25,300,350"><g id="svgg"><path id="path1" d="M136.563 37.188 C 136.563 37.359,135.855 37.500,134.990 37.500 C 133.881 37.500,133.365 37.638,133.238 37.969 C 133.139 38.227,132.722 38.438,132.310 38.438 C 131.899 38.438,131.563 38.563,131.563 38.716 C 131.563 38.869,131.211 39.083,130.781 39.191 C 130.211 39.334,130.000 39.596,130.000 40.162 C 130.000 40.589,129.864 40.938,129.698 40.938 C 129.290 40.938,127.500 42.710,127.500 43.114 C 127.500 43.292,127.359 43.438,127.188 43.438 C 126.674 43.438,125.625 44.646,125.625 45.238 C 125.625 45.541,125.273 46.053,124.844 46.376 C 124.414 46.699,124.063 47.271,124.063 47.647 C 124.063 48.058,123.750 48.499,123.281 48.750 C 122.852 48.980,122.500 49.355,122.500 49.584 C 122.500 49.813,122.340 50.000,122.144 50.000 C 121.619 50.000,120.959 50.991,120.947 51.797 C 120.942 52.184,120.797 52.500,120.625 52.500 C 119.978 52.500,119.063 53.782,119.063 54.688 C 119.063 55.203,118.922 55.625,118.750 55.625 C 118.578 55.625,118.438 55.836,118.438 56.094 C 118.438 56.352,118.227 56.563,117.969 56.563 C 117.705 56.563,117.500 56.842,117.500 57.202 C 117.500 57.554,117.148 58.168,116.719 58.566 C 116.289 58.965,115.938 59.576,115.938 59.924 C 115.938 60.273,115.727 60.639,115.469 60.738 C 115.211 60.837,115.000 61.259,115.000 61.676 C 115.000 62.092,114.789 62.514,114.531 62.613 C 114.273 62.712,114.063 63.018,114.063 63.292 C 114.063 63.567,113.570 64.256,112.969 64.824 C 112.367 65.391,111.869 66.120,111.862 66.443 C 111.854 66.767,111.433 67.376,110.924 67.798 C 110.416 68.219,110.000 68.817,110.000 69.126 C 110.000 69.435,109.859 69.688,109.688 69.688 C 109.516 69.688,109.375 70.250,109.375 70.938 C 109.375 71.840,109.245 72.188,108.906 72.188 C 108.648 72.188,108.438 72.383,108.438 72.623 C 108.438 72.862,108.227 73.139,107.969 73.238 C 107.683 73.348,107.500 73.821,107.500 74.447 C 107.500 75.180,107.275 75.645,106.719 76.063 C 106.289 76.386,105.938 76.901,105.938 77.209 C 105.938 77.516,105.586 78.044,105.156 78.382 C 104.589 78.828,104.375 79.296,104.375 80.090 C 104.375 80.773,104.199 81.251,103.906 81.363 C 103.612 81.476,103.438 81.954,103.438 82.646 C 103.438 83.253,103.297 83.750,103.125 83.750 C 102.949 83.750,102.813 84.635,102.813 85.781 C 102.813 87.378,102.712 87.813,102.344 87.813 C 102.058 87.813,101.875 88.104,101.875 88.560 C 101.875 88.972,101.664 89.389,101.406 89.488 C 101.076 89.615,100.938 90.131,100.938 91.240 C 100.938 92.105,100.797 92.813,100.625 92.813 C 100.453 92.813,100.313 93.149,100.313 93.560 C 100.313 93.972,100.102 94.389,99.844 94.488 C 99.515 94.614,99.375 95.127,99.375 96.207 C 99.375 97.286,99.235 97.799,98.906 97.926 C 98.648 98.024,98.438 98.391,98.438 98.740 C 98.438 99.089,98.297 99.375,98.125 99.375 C 97.953 99.375,97.813 100.148,97.813 101.094 C 97.813 102.413,97.704 102.813,97.344 102.813 C 97.020 102.813,96.875 103.138,96.875 103.868 C 96.875 104.449,96.664 105.099,96.406 105.313 C 96.020 105.633,95.938 106.738,95.938 111.601 C 95.938 115.325,95.822 117.500,95.625 117.500 C 95.453 117.500,95.313 118.047,95.313 118.717 C 95.313 119.510,95.149 119.996,94.844 120.113 C 94.455 120.262,94.375 121.120,94.375 125.146 C 94.375 129.252,94.447 130.000,94.844 130.000 C 95.225 130.000,95.313 130.517,95.313 132.779 C 95.313 134.961,95.212 135.597,94.844 135.738 C 94.478 135.878,94.375 136.500,94.375 138.565 C 94.375 140.022,94.234 141.300,94.063 141.406 C 93.878 141.520,93.750 143.392,93.750 145.966 C 93.750 149.559,93.667 150.364,93.281 150.512 C 92.577 150.782,92.577 167.655,93.281 167.926 C 93.575 168.038,93.750 168.516,93.750 169.209 C 93.750 169.816,93.891 170.313,94.063 170.313 C 94.234 170.313,94.375 170.875,94.375 171.563 C 94.375 172.465,94.505 172.813,94.844 172.813 C 95.102 172.813,95.313 173.023,95.313 173.281 C 95.313 173.539,95.453 173.750,95.625 173.750 C 95.797 173.750,95.938 173.988,95.938 174.279 C 95.938 174.569,96.500 175.332,97.188 175.973 C 97.882 176.621,98.438 177.431,98.438 177.798 C 98.438 178.160,98.648 178.538,98.906 178.637 C 99.164 178.736,99.375 179.153,99.375 179.565 C 99.375 179.976,99.535 180.313,99.731 180.313 C 100.214 180.312,100.915 181.279,100.928 181.963 C 100.933 182.269,101.148 182.601,101.406 182.699 C 101.664 182.798,101.875 183.216,101.875 183.627 C 101.875 184.084,102.058 184.375,102.344 184.375 C 102.682 184.375,102.813 184.722,102.813 185.625 C 102.813 186.313,102.953 186.875,103.125 186.875 C 103.297 186.875,103.438 187.227,103.438 187.656 C 103.438 188.142,103.615 188.438,103.906 188.438 C 104.195 188.438,104.375 188.731,104.375 189.200 C 104.375 189.620,104.516 190.050,104.688 190.156 C 104.859 190.262,105.000 190.627,105.000 190.966 C 105.000 191.305,105.211 191.663,105.469 191.762 C 105.759 191.873,105.938 192.349,105.938 193.012 C 105.938 193.675,106.116 194.151,106.406 194.262 C 106.664 194.361,106.875 194.778,106.875 195.190 C 106.875 195.601,107.016 195.938,107.188 195.938 C 107.364 195.938,107.500 196.823,107.500 197.969 C 107.500 199.566,107.600 200.000,107.969 200.000 C 108.355 200.000,108.438 200.569,108.438 203.248 C 108.438 205.846,108.344 206.532,107.969 206.676 C 107.614 206.812,107.500 207.386,107.500 209.034 C 107.500 210.233,107.359 211.300,107.188 211.406 C 107.016 211.512,106.875 212.088,106.875 212.685 C 106.875 213.361,106.698 213.837,106.406 213.949 C 106.058 214.083,105.938 214.636,105.938 216.094 C 105.938 217.552,105.817 218.105,105.469 218.238 C 105.175 218.351,105.000 218.829,105.000 219.521 C 105.000 220.128,104.859 220.625,104.688 220.625 C 104.487 220.625,104.375 223.692,104.375 229.200 C 104.375 234.580,104.491 237.848,104.688 237.969 C 104.859 238.075,105.000 239.142,105.000 240.341 C 105.000 241.989,105.114 242.563,105.469 242.699 C 106.164 242.966,106.164 251.721,105.469 251.988 C 104.848 252.226,104.848 254.024,105.469 254.262 C 105.844 254.406,105.938 255.091,105.938 257.690 C 105.938 260.368,106.020 260.938,106.406 260.938 C 106.766 260.938,106.875 261.337,106.875 262.656 C 106.875 263.602,107.016 264.375,107.188 264.375 C 107.388 264.375,107.500 267.448,107.500 272.969 C 107.500 278.490,107.388 281.563,107.188 281.563 C 107.016 281.563,106.875 282.251,106.875 283.092 C 106.875 284.162,106.735 284.675,106.406 284.801 C 106.067 284.931,105.937 285.463,105.937 286.731 C 105.938 287.871,105.774 288.646,105.469 288.951 C 105.211 289.209,105.000 289.823,105.000 290.316 C 105.000 290.810,104.859 291.300,104.688 291.406 C 104.516 291.512,104.375 292.420,104.375 293.423 C 104.375 294.755,104.249 295.294,103.906 295.426 C 103.648 295.524,103.437 295.961,103.438 296.396 C 103.438 296.832,103.297 297.188,103.125 297.188 C 102.949 297.188,102.813 298.073,102.813 299.219 C 102.813 300.816,102.712 301.250,102.344 301.250 C 102.086 301.250,101.875 301.461,101.875 301.719 C 101.875 301.977,101.664 302.188,101.406 302.188 C 101.080 302.188,100.938 302.515,100.938 303.263 C 100.937 303.854,100.797 304.425,100.625 304.531 C 100.453 304.637,100.312 305.068,100.313 305.487 C 100.313 305.957,100.132 306.250,99.844 306.250 C 99.453 306.250,99.375 306.875,99.375 310.000 C 99.375 313.125,99.453 313.750,99.844 313.750 C 100.135 313.750,100.313 314.045,100.313 314.531 C 100.313 314.961,100.453 315.313,100.625 315.313 C 100.797 315.313,100.938 316.020,100.938 316.885 C 100.938 317.994,101.076 318.510,101.406 318.637 C 101.712 318.754,101.875 319.240,101.875 320.033 C 101.875 320.906,102.007 321.250,102.344 321.250 C 102.682 321.250,102.813 321.597,102.813 322.500 C 102.813 323.188,102.953 323.750,103.125 323.750 C 103.297 323.750,103.438 323.992,103.438 324.287 C 103.437 324.893,104.876 326.250,105.517 326.250 C 105.748 326.250,105.938 326.391,105.938 326.563 C 105.938 326.734,106.148 326.875,106.406 326.875 C 106.664 326.875,106.875 327.005,106.875 327.163 C 106.875 327.539,108.711 329.375,109.087 329.375 C 109.245 329.375,109.375 329.586,109.375 329.844 C 109.375 330.109,109.655 330.313,110.019 330.313 C 110.840 330.313,115.000 334.505,115.000 335.332 C 115.000 335.665,115.211 335.938,115.469 335.938 C 115.727 335.938,115.938 336.115,115.938 336.332 C 115.938 336.549,116.289 336.991,116.719 337.313 C 117.148 337.636,117.500 338.142,117.500 338.438 C 117.500 338.733,117.852 339.239,118.281 339.562 C 118.711 339.884,119.062 340.435,119.063 340.786 C 119.063 341.424,120.046 342.500,120.629 342.500 C 120.798 342.500,120.938 342.651,120.937 342.835 C 120.937 343.557,123.261 345.000,124.423 345.000 C 124.740 345.000,125.000 345.211,125.000 345.469 C 125.000 345.807,125.347 345.938,126.250 345.938 C 126.938 345.938,127.500 346.078,127.500 346.250 C 127.500 346.422,127.852 346.563,128.281 346.563 C 128.767 346.563,129.063 346.740,129.063 347.031 C 129.063 347.289,129.273 347.500,129.531 347.500 C 129.789 347.500,130.000 347.711,130.000 347.969 C 130.000 348.260,130.295 348.438,130.781 348.438 C 131.211 348.438,131.563 348.575,131.563 348.744 C 131.562 348.913,131.914 349.139,132.344 349.247 C 132.773 349.355,133.125 349.568,133.125 349.721 C 133.125 349.875,133.321 350.000,133.560 350.000 C 133.800 350.000,134.077 350.211,134.176 350.469 C 134.308 350.814,134.853 350.938,136.240 350.938 C 137.288 350.938,138.125 351.076,138.125 351.250 C 138.125 351.422,138.336 351.563,138.594 351.563 C 138.852 351.563,139.063 351.773,139.063 352.031 C 139.063 352.422,139.688 352.500,142.813 352.500 C 145.938 352.500,146.563 352.422,146.563 352.031 C 146.563 351.693,146.910 351.563,147.813 351.563 C 148.500 351.563,149.063 351.422,149.063 351.250 C 149.063 351.070,150.041 350.938,151.373 350.938 C 153.138 350.938,153.726 350.827,153.863 350.469 C 154.013 350.077,154.923 350.000,159.365 350.000 C 162.705 350.000,164.688 349.884,164.688 349.688 C 164.688 349.516,165.223 349.375,165.878 349.375 C 166.532 349.375,167.341 349.169,167.675 348.916 C 168.008 348.664,168.532 348.453,168.838 348.447 C 169.144 348.442,169.476 348.227,169.574 347.969 C 169.686 347.678,170.162 347.500,170.824 347.500 C 171.487 347.500,171.963 347.322,172.074 347.031 C 172.185 346.742,172.660 346.563,173.315 346.563 C 173.898 346.563,174.375 346.422,174.375 346.250 C 174.375 346.074,175.264 345.938,176.416 345.938 C 177.942 345.938,178.503 345.819,178.637 345.469 C 178.747 345.182,179.221 345.000,179.859 345.000 C 180.432 345.000,180.988 344.859,181.094 344.688 C 181.200 344.516,181.665 344.370,182.128 344.365 C 183.007 344.354,184.375 343.426,184.375 342.841 C 184.375 342.653,184.525 342.500,184.708 342.500 C 184.892 342.500,185.490 342.027,186.037 341.450 C 186.584 340.872,187.348 340.300,187.734 340.179 C 188.121 340.057,188.438 339.827,188.438 339.666 C 188.438 339.506,188.648 339.375,188.906 339.375 C 189.164 339.375,189.375 339.240,189.375 339.075 C 189.375 338.489,196.278 331.875,196.890 331.875 C 197.225 331.875,197.500 331.734,197.500 331.563 C 197.500 331.391,197.771 331.250,198.103 331.250 C 198.434 331.250,198.916 331.039,199.174 330.781 C 199.432 330.523,199.844 330.313,200.090 330.313 C 200.336 330.313,200.801 329.961,201.124 329.531 C 201.447 329.102,201.937 328.750,202.214 328.750 C 202.818 328.750,204.063 327.726,204.063 327.229 C 204.063 327.034,204.461 326.875,204.947 326.875 C 205.571 326.875,205.955 326.645,206.250 326.094 C 206.480 325.664,206.855 325.313,207.084 325.313 C 207.313 325.313,207.500 325.102,207.500 324.844 C 207.500 324.552,207.795 324.375,208.281 324.375 C 208.711 324.375,209.063 324.234,209.063 324.063 C 209.063 323.891,209.414 323.750,209.844 323.750 C 210.330 323.750,210.625 323.573,210.625 323.281 C 210.625 323.023,210.836 322.813,211.094 322.813 C 211.352 322.813,211.563 322.687,211.563 322.534 C 211.562 322.381,211.914 322.167,212.344 322.059 C 212.773 321.951,213.125 321.725,213.125 321.557 C 213.125 321.388,213.457 321.250,213.862 321.250 C 214.284 321.250,214.851 320.916,215.187 320.469 C 215.509 320.039,216.000 319.688,216.276 319.688 C 216.880 319.688,218.125 318.663,218.125 318.166 C 218.125 317.972,218.336 317.813,218.594 317.813 C 218.852 317.813,219.063 317.672,219.063 317.500 C 219.063 317.328,219.265 317.188,219.513 317.188 C 220.122 317.187,223.125 314.275,223.125 313.684 C 223.125 313.425,223.477 312.949,223.906 312.626 C 224.336 312.303,224.688 311.772,224.688 311.445 C 224.688 311.118,224.912 310.686,225.186 310.486 C 225.475 310.274,225.639 309.800,225.577 309.357 C 225.479 308.668,225.375 308.745,224.499 310.156 C 223.295 312.098,218.883 316.563,218.169 316.563 C 218.035 316.563,217.021 317.264,215.916 318.122 C 214.811 318.980,213.718 319.683,213.488 319.685 C 212.810 319.689,209.259 321.785,207.130 323.437 C 206.044 324.280,204.805 325.239,204.375 325.568 C 203.945 325.898,202.479 326.762,201.117 327.488 C 196.648 329.869,194.515 331.477,190.879 335.204 C 184.397 341.850,183.364 342.444,174.934 344.378 C 172.565 344.921,170.755 345.551,167.031 347.127 C 165.346 347.841,164.650 347.934,160.156 348.046 C 155.183 348.169,149.349 349.063,146.155 350.190 C 142.587 351.449,136.405 349.845,130.938 346.241 C 130.164 345.731,129.039 345.097,128.438 344.831 C 127.836 344.566,126.641 344.014,125.781 343.606 C 124.922 343.198,123.893 342.769,123.495 342.654 C 122.723 342.431,120.625 340.723,120.625 340.318 C 120.625 338.425,114.753 331.547,109.600 327.404 C 105.178 323.850,104.477 323.029,104.042 320.898 C 103.462 318.056,102.483 314.926,101.612 313.126 C 100.611 311.055,100.536 308.816,101.414 307.188 C 102.814 304.592,104.400 300.260,105.360 296.406 C 105.532 295.719,105.963 294.102,106.318 292.813 C 106.674 291.523,107.132 289.625,107.337 288.594 C 107.541 287.563,107.978 285.945,108.307 285.000 C 109.321 282.090,109.193 262.493,108.144 259.844 C 107.439 258.067,107.389 257.470,107.185 248.438 C 107.025 241.371,106.823 238.098,106.403 235.781 C 105.543 231.039,105.570 223.916,106.458 221.250 C 106.831 220.133,107.236 218.516,107.358 217.656 C 107.481 216.797,107.836 215.391,108.148 214.531 C 108.459 213.672,108.872 212.055,109.064 210.938 C 109.257 209.820,109.617 208.213,109.863 207.365 C 111.064 203.246,109.692 195.996,106.577 190.000 C 106.265 189.398,105.908 188.555,105.785 188.125 C 105.519 187.199,104.887 185.783,103.137 182.188 C 101.627 179.086,101.000 178.088,97.270 172.844 C 96.365 171.572,95.625 170.235,95.625 169.873 C 95.625 169.511,95.280 167.959,94.857 166.424 C 93.949 163.123,93.983 154.849,94.919 151.563 C 95.224 150.491,95.429 148.374,95.465 145.938 C 95.524 141.917,95.635 140.981,96.466 137.500 C 96.867 135.820,96.913 134.281,96.732 128.590 C 96.545 122.672,96.588 121.407,97.045 119.528 C 97.430 117.947,97.567 116.115,97.543 112.892 C 97.513 108.990,97.605 108.123,98.286 105.861 C 99.816 100.781,100.981 97.016,101.306 96.094 C 103.156 90.860,103.883 88.647,104.231 87.188 C 105.568 81.570,106.215 79.733,107.538 77.790 C 108.291 76.685,109.312 74.938,109.808 73.906 C 110.304 72.875,111.077 71.273,111.527 70.347 C 111.976 69.420,113.023 67.805,113.854 66.758 C 114.685 65.712,115.562 64.431,115.803 63.912 C 116.364 62.705,119.079 58.350,119.736 57.602 C 120.013 57.288,120.345 56.680,120.474 56.250 C 120.994 54.526,122.584 52.021,124.369 50.113 C 125.405 49.006,126.593 47.437,127.009 46.628 C 128.625 43.486,132.357 40.115,135.020 39.392 C 141.480 37.638,145.163 39.151,148.824 45.062 C 149.122 45.543,149.509 45.938,149.683 45.938 C 150.183 45.938,150.052 44.688,149.531 44.488 C 149.273 44.389,149.063 44.112,149.063 43.873 C 149.063 43.633,148.852 43.438,148.594 43.438 C 148.325 43.438,148.125 43.156,148.125 42.776 C 148.125 42.412,147.563 41.568,146.875 40.901 C 146.188 40.234,145.625 39.479,145.625 39.223 C 145.625 37.937,144.655 37.500,141.806 37.500 C 140.185 37.500,139.063 37.372,139.063 37.188 C 139.063 37.016,138.500 36.875,137.813 36.875 C 137.125 36.875,136.563 37.016,136.563 37.188 M135.618 41.637 C 133.339 42.777,130.313 45.891,130.313 47.094 C 130.313 47.736,130.535 47.599,132.188 45.938 C 133.042 45.078,134.025 44.375,134.371 44.375 C 134.717 44.375,135.000 44.250,135.000 44.096 C 135.000 43.943,135.352 43.730,135.781 43.622 C 136.211 43.514,136.563 43.288,136.563 43.119 C 136.563 42.946,137.549 42.817,138.828 42.822 C 141.050 42.832,142.188 43.237,142.188 44.019 C 142.188 44.215,142.398 44.375,142.656 44.375 C 142.914 44.375,143.125 44.586,143.125 44.844 C 143.125 45.102,143.266 45.313,143.438 45.313 C 143.609 45.313,143.750 45.573,143.750 45.891 C 143.750 46.209,144.172 46.792,144.688 47.188 C 145.259 47.626,145.625 48.192,145.625 48.640 C 145.625 49.044,145.766 49.375,145.938 49.375 C 146.109 49.375,146.250 49.872,146.250 50.479 C 146.250 51.171,146.425 51.649,146.719 51.762 C 147.068 51.896,147.188 52.452,147.188 53.940 C 147.188 55.507,147.288 55.938,147.656 55.938 C 148.010 55.938,148.125 56.319,148.125 57.500 C 148.125 58.359,148.266 59.063,148.438 59.063 C 148.614 59.063,148.750 59.951,148.750 61.104 C 148.750 62.630,148.868 63.190,149.219 63.324 C 149.477 63.423,149.688 63.841,149.688 64.252 C 149.688 64.663,149.828 65.000,150.000 65.000 C 150.172 65.000,150.313 65.763,150.313 66.696 C 150.313 67.788,150.480 68.560,150.781 68.862 C 151.039 69.119,151.250 69.833,151.250 70.446 C 151.250 71.230,151.390 71.563,151.719 71.563 C 152.101 71.563,152.188 72.083,152.188 74.375 C 152.188 76.042,152.315 77.188,152.500 77.188 C 152.672 77.188,152.813 77.750,152.813 78.438 C 152.813 79.340,152.943 79.688,153.281 79.688 C 153.650 79.688,153.750 80.123,153.750 81.729 C 153.750 83.255,153.868 83.815,154.219 83.949 C 154.508 84.060,154.688 84.535,154.688 85.190 C 154.688 85.773,154.828 86.250,155.000 86.250 C 155.175 86.250,155.313 87.112,155.313 88.212 C 155.313 90.142,155.884 91.250,156.879 91.250 C 157.048 91.250,157.188 91.813,157.188 92.500 C 157.188 93.188,157.328 93.750,157.500 93.750 C 157.672 93.750,157.813 94.102,157.813 94.531 C 157.813 95.017,157.990 95.313,158.281 95.313 C 158.620 95.313,158.750 95.660,158.750 96.563 C 158.750 97.465,158.880 97.813,159.219 97.813 C 159.477 97.813,159.688 98.023,159.688 98.281 C 159.688 98.539,159.828 98.750,160.000 98.750 C 160.172 98.750,160.315 99.207,160.318 99.766 C 160.321 100.436,160.587 101.031,161.099 101.517 C 161.698 102.085,161.875 102.569,161.875 103.636 C 161.875 104.578,162.025 105.077,162.344 105.199 C 162.649 105.317,162.813 105.803,162.813 106.596 C 162.813 107.469,162.945 107.813,163.281 107.813 C 163.659 107.813,163.750 108.299,163.750 110.313 C 163.750 111.771,163.880 112.813,164.063 112.813 C 164.234 112.813,164.375 113.516,164.375 114.375 C 164.375 115.556,164.490 115.938,164.844 115.938 C 165.228 115.938,165.313 116.476,165.313 118.906 C 165.313 121.337,165.397 121.875,165.781 121.875 C 166.073 121.875,166.250 122.170,166.250 122.656 C 166.250 123.086,166.391 123.438,166.563 123.438 C 166.734 123.438,166.875 123.789,166.875 124.219 C 166.875 124.705,167.052 125.000,167.344 125.000 C 167.637 125.000,167.813 125.296,167.813 125.791 C 167.813 126.226,168.023 126.663,168.281 126.762 C 168.667 126.910,168.750 127.710,168.750 131.265 C 168.750 133.810,168.879 135.668,169.063 135.781 C 169.245 135.894,169.375 137.659,169.375 140.018 C 169.375 143.405,169.451 144.063,169.844 144.063 C 170.221 144.063,170.313 144.549,170.313 146.563 C 170.313 148.021,170.443 149.063,170.625 149.063 C 170.797 149.063,170.938 149.348,170.938 149.697 C 170.938 150.046,171.148 150.413,171.406 150.512 C 171.774 150.653,171.875 151.290,171.875 153.481 C 171.875 155.671,171.976 156.308,172.344 156.449 C 172.602 156.548,172.813 156.966,172.813 157.377 C 172.813 157.788,172.953 158.125,173.125 158.125 C 173.297 158.125,173.439 158.582,173.441 159.141 C 173.443 159.931,173.719 160.399,174.688 161.250 C 175.441 161.912,175.933 162.621,175.934 163.047 C 175.936 163.462,176.129 163.750,176.406 163.750 C 176.664 163.750,176.875 163.961,176.875 164.219 C 176.875 164.489,177.157 164.688,177.542 164.688 C 177.909 164.688,178.535 165.039,178.934 165.469 C 179.332 165.898,179.931 166.250,180.264 166.250 C 180.598 166.250,180.952 166.461,181.051 166.719 C 181.149 166.977,181.456 167.188,181.731 167.188 C 182.007 167.188,182.443 167.398,182.701 167.656 C 183.012 167.967,183.792 168.125,185.022 168.125 C 186.049 168.125,186.875 168.264,186.875 168.438 C 186.875 168.609,187.227 168.750,187.656 168.750 C 188.142 168.750,188.438 168.927,188.438 169.219 C 188.438 169.587,188.872 169.688,190.469 169.688 C 191.615 169.688,192.500 169.824,192.500 170.000 C 192.500 170.172,193.063 170.313,193.750 170.313 C 194.653 170.313,195.000 170.443,195.000 170.781 C 195.000 171.183,195.934 171.250,201.529 171.250 C 207.044 171.250,208.086 171.323,208.238 171.719 C 208.351 172.013,208.829 172.188,209.521 172.188 C 210.128 172.188,210.625 172.328,210.625 172.500 C 210.625 172.688,211.921 172.813,213.888 172.813 C 215.726 172.813,217.235 172.676,217.344 172.500 C 217.450 172.328,217.814 172.188,218.153 172.188 C 218.492 172.188,218.851 171.977,218.949 171.719 C 219.067 171.413,219.553 171.250,220.346 171.250 C 221.015 171.250,221.563 171.099,221.563 170.915 C 221.563 170.731,221.763 170.379,222.009 170.134 C 222.254 169.888,222.606 169.688,222.790 169.688 C 222.974 169.688,223.125 169.552,223.125 169.385 C 223.125 169.219,224.039 168.200,225.155 167.120 C 226.468 165.850,227.186 164.908,227.186 164.453 C 227.187 164.037,227.379 163.750,227.656 163.750 C 227.948 163.750,228.125 163.455,228.125 162.969 C 228.125 162.539,228.263 162.188,228.432 162.188 C 228.600 162.188,228.826 161.836,228.934 161.406 C 229.042 160.977,229.256 160.625,229.409 160.625 C 229.562 160.625,229.688 160.269,229.688 159.834 C 229.688 159.399,229.898 158.962,230.156 158.863 C 230.414 158.764,230.625 158.347,230.625 157.935 C 230.625 157.524,230.766 157.188,230.938 157.188 C 231.109 157.188,231.250 156.836,231.250 156.406 C 231.250 155.920,231.427 155.625,231.719 155.625 C 231.977 155.625,232.188 155.414,232.188 155.156 C 232.188 154.898,232.375 154.688,232.603 154.687 C 232.832 154.687,233.208 154.336,233.438 153.906 C 233.667 153.477,234.043 153.125,234.272 153.125 C 234.500 153.125,234.688 152.914,234.688 152.656 C 234.688 152.398,234.898 152.188,235.156 152.188 C 235.425 152.188,235.625 151.906,235.625 151.527 C 235.625 151.117,236.513 150.002,237.969 148.584 C 239.258 147.328,240.313 146.078,240.313 145.806 C 240.313 145.534,241.086 144.557,242.031 143.634 C 242.977 142.711,243.750 141.747,243.750 141.491 C 243.750 141.235,244.102 140.761,244.531 140.438 C 244.961 140.116,245.313 139.674,245.313 139.457 C 245.313 139.240,245.472 139.063,245.666 139.063 C 246.254 139.062,247.234 137.713,247.079 137.118 C 246.999 136.813,247.072 136.562,247.241 136.563 C 247.736 136.563,249.375 134.781,249.375 134.242 C 249.375 133.971,249.938 133.203,250.625 132.536 C 251.313 131.869,251.875 131.025,251.875 130.662 C 251.875 130.298,252.014 130.000,252.184 130.000 C 252.795 130.000,253.750 128.909,253.750 128.212 C 253.750 127.661,253.927 127.500,254.531 127.500 C 255.156 127.500,255.313 127.344,255.313 126.719 C 255.313 126.094,255.469 125.938,256.094 125.938 C 256.666 125.938,256.875 125.771,256.875 125.314 C 256.875 124.538,263.548 117.813,264.318 117.812 C 264.880 117.812,265.938 116.790,265.938 116.246 C 265.938 116.077,266.088 115.938,266.272 115.938 C 266.705 115.938,267.500 115.142,267.500 114.710 C 267.500 114.526,267.832 114.375,268.237 114.375 C 268.659 114.375,269.226 114.041,269.562 113.594 C 269.884 113.164,270.326 112.812,270.543 112.813 C 270.760 112.813,270.938 112.683,270.938 112.524 C 270.938 112.149,272.774 110.312,273.149 110.313 C 273.308 110.313,273.438 110.102,273.438 109.844 C 273.438 109.578,273.718 109.375,274.087 109.375 C 274.761 109.375,276.562 107.801,276.562 107.212 C 276.563 107.026,276.714 106.875,276.899 106.875 C 277.336 106.875,279.063 105.149,279.063 104.712 C 279.063 104.526,279.273 104.375,279.531 104.375 C 279.823 104.375,280.000 104.080,280.000 103.594 C 280.000 103.011,280.165 102.813,280.649 102.813 C 281.314 102.812,285.625 98.769,285.625 98.144 C 285.625 97.962,285.776 97.813,285.962 97.813 C 286.399 97.813,288.125 96.086,288.125 95.649 C 288.125 95.464,288.336 95.313,288.594 95.313 C 288.852 95.313,289.063 95.172,289.063 95.000 C 289.063 94.828,289.414 94.688,289.844 94.688 C 290.330 94.688,290.625 94.510,290.625 94.219 C 290.625 93.961,290.836 93.750,291.094 93.750 C 291.354 93.750,291.563 93.472,291.563 93.125 C 291.563 92.380,292.612 91.250,293.304 91.250 C 293.865 91.250,294.688 90.520,294.688 90.022 C 294.688 89.838,294.898 89.688,295.156 89.688 C 295.414 89.688,295.625 89.477,295.625 89.219 C 295.625 88.961,295.836 88.750,296.094 88.750 C 296.352 88.750,296.563 88.609,296.563 88.438 C 296.563 88.266,296.848 88.125,297.197 88.125 C 297.546 88.125,297.913 87.914,298.012 87.656 C 298.111 87.398,298.528 87.188,298.940 87.188 C 299.396 87.188,299.688 87.005,299.688 86.719 C 299.688 86.461,299.898 86.250,300.156 86.250 C 300.414 86.250,300.625 86.109,300.625 85.938 C 300.625 85.766,300.977 85.625,301.406 85.625 C 301.892 85.625,302.188 85.448,302.188 85.156 C 302.188 84.887,302.470 84.688,302.851 84.688 C 303.238 84.687,304.148 84.035,305.029 83.125 C 305.862 82.266,306.814 81.563,307.144 81.563 C 307.475 81.563,307.827 81.352,307.926 81.094 C 308.148 80.515,315.313 80.385,315.313 80.960 C 315.312 81.392,316.108 82.187,316.540 82.188 C 316.724 82.188,316.875 82.750,316.875 83.438 C 316.875 84.125,317.000 84.688,317.154 84.688 C 317.307 84.688,317.520 85.039,317.628 85.469 C 317.736 85.898,317.962 86.250,318.131 86.250 C 318.300 86.250,318.438 86.813,318.438 87.500 C 318.438 88.403,318.568 88.750,318.906 88.750 C 319.164 88.750,319.375 88.961,319.375 89.219 C 319.375 89.477,319.586 89.688,319.844 89.688 C 320.221 89.688,320.313 90.174,320.313 92.188 C 320.313 93.646,320.443 94.688,320.625 94.688 C 320.797 94.688,320.938 95.184,320.938 95.791 C 320.938 96.484,321.112 96.962,321.406 97.074 C 321.789 97.222,321.875 97.990,321.875 101.283 C 321.875 103.761,321.995 105.313,322.188 105.313 C 322.359 105.313,322.500 105.935,322.500 106.696 C 322.500 107.510,322.693 108.274,322.969 108.549 C 323.571 109.152,323.571 110.536,322.969 111.138 C 322.297 111.810,322.314 116.019,322.991 116.696 C 323.437 117.143,323.437 117.232,322.991 117.679 C 322.572 118.098,322.500 119.266,322.500 125.647 C 322.500 130.424,322.387 133.125,322.188 133.125 C 321.994 133.125,321.875 134.833,321.875 137.623 C 321.875 141.333,321.793 142.152,321.406 142.301 C 321.047 142.438,320.938 143.030,320.938 144.834 C 320.938 146.195,320.806 147.188,320.625 147.188 C 320.449 147.188,320.313 148.073,320.313 149.219 C 320.313 150.816,320.212 151.250,319.844 151.250 C 319.507 151.250,319.375 151.594,319.375 152.467 C 319.375 153.260,319.212 153.746,318.906 153.863 C 318.561 153.995,318.438 154.541,318.438 155.928 C 318.438 156.964,318.308 157.813,318.150 157.813 C 317.992 157.813,317.770 158.234,317.656 158.750 C 317.543 159.266,317.321 159.688,317.163 159.688 C 317.004 159.688,316.875 160.039,316.875 160.469 C 316.875 160.955,316.698 161.250,316.406 161.250 C 316.068 161.250,315.938 161.597,315.938 162.500 C 315.938 163.188,315.797 163.750,315.625 163.750 C 315.453 163.750,315.313 164.313,315.313 165.000 C 315.313 165.903,315.182 166.250,314.844 166.250 C 314.558 166.250,314.375 166.541,314.375 166.998 C 314.375 167.409,314.164 167.827,313.906 167.926 C 313.648 168.024,313.438 168.391,313.438 168.740 C 313.438 169.089,313.297 169.375,313.125 169.375 C 312.953 169.375,312.813 169.586,312.813 169.844 C 312.813 170.102,312.602 170.313,312.344 170.313 C 312.052 170.313,311.875 170.608,311.875 171.094 C 311.875 171.523,311.734 171.875,311.563 171.875 C 311.391 171.875,311.250 172.212,311.250 172.623 C 311.250 173.034,311.039 173.452,310.781 173.551 C 310.505 173.657,310.313 174.126,310.312 174.693 C 310.312 175.318,310.039 175.909,309.531 176.379 C 308.974 176.895,308.750 177.429,308.750 178.239 C 308.750 179.040,308.612 179.375,308.281 179.375 C 307.995 179.375,307.813 179.666,307.813 180.123 C 307.812 180.534,307.602 180.952,307.344 181.051 C 307.050 181.163,306.875 181.641,306.875 182.334 C 306.875 182.941,306.734 183.438,306.563 183.438 C 306.391 183.438,306.250 183.774,306.250 184.185 C 306.250 184.597,306.039 185.014,305.781 185.113 C 305.505 185.219,305.313 185.688,305.313 186.253 C 305.313 186.966,304.991 187.518,304.063 188.402 C 303.120 189.299,302.813 189.833,302.813 190.577 C 302.813 191.119,302.672 191.563,302.500 191.563 C 302.324 191.563,302.188 192.451,302.188 193.604 C 302.187 195.130,302.069 195.690,301.719 195.824 C 301.461 195.923,301.250 196.341,301.250 196.752 C 301.250 197.209,301.067 197.500,300.781 197.500 C 300.389 197.500,300.313 198.160,300.313 201.563 C 300.313 204.063,300.192 205.625,300.000 205.625 C 299.828 205.625,299.688 206.188,299.688 206.875 C 299.688 207.778,299.557 208.125,299.219 208.125 C 298.889 208.125,298.750 208.459,298.750 209.252 C 298.750 210.082,298.544 210.541,297.969 210.993 C 297.519 211.347,297.188 211.929,297.188 212.366 C 297.188 212.832,297.007 213.125,296.719 213.125 C 296.461 213.125,296.250 213.401,296.250 213.739 C 296.250 214.477,294.595 216.250,293.907 216.250 C 293.638 216.250,293.337 216.461,293.238 216.719 C 293.139 216.977,292.717 217.187,292.301 217.188 C 291.884 217.188,291.462 217.398,291.363 217.656 C 291.246 217.962,290.760 218.125,289.967 218.125 C 289.297 218.125,288.750 218.266,288.750 218.438 C 288.750 218.609,288.524 218.750,288.247 218.750 C 287.970 218.750,286.421 220.086,284.804 221.719 C 283.187 223.352,281.649 224.688,281.386 224.688 C 281.123 224.688,280.582 225.039,280.184 225.469 C 279.785 225.898,279.159 226.250,278.792 226.250 C 278.425 226.250,278.125 226.437,278.125 226.666 C 278.125 226.895,277.773 227.270,277.344 227.500 C 276.914 227.730,276.563 228.105,276.563 228.334 C 276.563 228.563,276.375 228.750,276.147 228.750 C 275.918 228.750,275.542 229.102,275.313 229.531 C 275.083 229.961,274.707 230.313,274.478 230.313 C 274.250 230.313,274.063 230.523,274.063 230.781 C 274.063 231.039,273.875 231.250,273.647 231.250 C 273.418 231.250,273.042 231.602,272.813 232.031 C 272.421 232.762,272.238 232.813,269.947 232.813 C 267.980 232.813,267.500 232.904,267.500 233.281 C 267.500 233.620,267.153 233.750,266.250 233.750 C 265.563 233.750,265.000 233.891,265.000 234.063 C 265.000 234.234,264.714 234.375,264.365 234.375 C 264.016 234.375,263.649 234.586,263.551 234.844 C 263.452 235.102,263.175 235.312,262.935 235.313 C 262.696 235.313,262.500 235.600,262.500 235.951 C 262.500 236.314,261.757 237.316,260.781 238.268 C 259.836 239.191,259.062 240.147,259.063 240.394 C 259.063 240.640,258.570 241.348,257.969 241.968 C 257.136 242.826,256.875 243.358,256.875 244.203 C 256.875 245.186,256.784 245.313,256.071 245.313 C 255.247 245.313,254.375 245.944,254.375 246.540 C 254.375 246.724,254.164 246.875,253.906 246.875 C 253.620 246.875,253.438 247.166,253.438 247.623 C 253.438 248.034,253.227 248.452,252.969 248.551 C 252.711 248.649,252.500 249.008,252.500 249.347 C 252.500 249.686,252.359 250.050,252.187 250.156 C 252.016 250.262,251.875 250.693,251.875 251.112 C 251.875 251.582,251.695 251.875,251.406 251.875 C 251.081 251.875,250.938 252.202,250.938 252.945 C 250.938 253.979,249.490 255.938,248.726 255.938 C 248.567 255.938,248.438 256.088,248.438 256.272 C 248.438 256.705,247.642 257.500,247.210 257.500 C 247.026 257.500,246.875 257.696,246.875 257.935 C 246.875 258.175,246.664 258.452,246.406 258.551 C 246.148 258.649,245.938 259.016,245.938 259.365 C 245.938 259.714,245.797 260.000,245.625 260.000 C 245.453 260.000,245.313 260.211,245.313 260.469 C 245.313 260.727,245.161 260.938,244.976 260.938 C 244.791 260.938,244.228 261.349,243.726 261.851 C 243.224 262.353,242.813 262.916,242.813 263.101 C 242.813 263.286,242.602 263.438,242.344 263.438 C 242.058 263.438,241.875 263.729,241.875 264.185 C 241.875 264.597,241.664 265.014,241.406 265.113 C 241.112 265.226,240.938 265.704,240.938 266.396 C 240.938 267.003,240.797 267.500,240.625 267.500 C 240.453 267.500,240.313 267.837,240.313 268.248 C 240.313 268.659,240.102 269.077,239.844 269.176 C 239.550 269.288,239.375 269.766,239.375 270.459 C 239.375 271.066,239.261 271.563,239.123 271.563 C 238.616 271.563,237.812 274.002,237.813 275.540 C 237.813 276.657,237.675 277.173,237.344 277.301 C 237.086 277.399,236.875 277.836,236.875 278.271 C 236.875 278.707,236.734 279.063,236.563 279.063 C 236.391 279.063,236.250 279.625,236.250 280.313 C 236.250 281.215,236.120 281.563,235.781 281.563 C 235.495 281.563,235.313 281.854,235.313 282.310 C 235.313 282.722,235.102 283.139,234.844 283.238 C 234.558 283.348,234.375 283.821,234.375 284.447 C 234.375 285.180,234.150 285.645,233.594 286.063 C 233.164 286.386,232.813 286.967,232.813 287.354 C 232.813 287.741,232.602 288.139,232.344 288.238 C 232.086 288.337,231.875 288.704,231.875 289.053 C 231.875 289.402,231.734 289.688,231.563 289.688 C 231.391 289.688,231.250 289.898,231.250 290.156 C 231.250 290.414,231.039 290.625,230.781 290.625 C 230.504 290.625,230.311 290.913,230.309 291.328 C 230.308 291.754,229.816 292.463,229.063 293.125 C 228.378 293.727,227.813 294.430,227.806 294.688 C 227.789 295.300,227.060 296.250,226.606 296.250 C 226.410 296.250,226.250 296.550,226.250 296.917 C 226.250 297.284,225.898 297.910,225.469 298.309 C 225.039 298.707,224.682 299.285,224.674 299.594 C 224.667 299.903,224.245 300.501,223.737 300.923 C 222.982 301.549,222.813 301.929,222.813 302.999 C 222.813 303.988,222.622 304.490,222.037 305.045 C 221.610 305.450,221.258 305.976,221.255 306.214 C 221.252 306.452,220.898 306.973,220.469 307.371 C 220.039 307.769,219.688 308.320,219.688 308.594 C 219.688 308.868,219.336 309.418,218.906 309.816 C 218.477 310.215,218.125 310.700,218.125 310.895 C 218.125 311.090,217.947 311.250,217.730 311.250 C 217.513 311.250,217.072 311.602,216.749 312.031 C 216.414 312.478,215.847 312.813,215.425 312.813 C 215.019 312.813,214.688 312.953,214.688 313.125 C 214.688 313.297,214.435 313.438,214.126 313.438 C 213.817 313.437,213.219 313.853,212.798 314.362 C 212.204 315.078,211.767 315.289,210.859 315.299 C 210.215 315.307,209.688 315.453,209.688 315.625 C 209.688 315.797,209.402 315.938,209.053 315.938 C 208.704 315.938,208.337 316.148,208.238 316.406 C 208.139 316.664,207.722 316.875,207.310 316.875 C 206.854 316.875,206.563 317.058,206.563 317.344 C 206.563 317.602,206.385 317.813,206.168 317.813 C 205.951 317.813,205.509 318.164,205.187 318.594 C 204.851 319.041,204.284 319.375,203.862 319.375 C 203.457 319.375,203.125 319.562,203.125 319.791 C 203.125 320.020,202.773 320.395,202.344 320.625 C 201.914 320.855,201.563 321.230,201.563 321.459 C 201.563 321.688,201.275 321.875,200.923 321.875 C 200.571 321.875,199.957 322.227,199.559 322.656 C 199.042 323.214,198.509 323.438,197.699 323.438 C 197.074 323.438,196.563 323.588,196.563 323.772 C 196.563 324.280,195.735 325.000,195.152 325.000 C 194.867 325.000,193.878 325.773,192.955 326.719 C 192.003 327.694,191.001 328.438,190.639 328.438 C 190.287 328.438,190.000 328.625,190.000 328.853 C 190.000 329.082,189.648 329.458,189.219 329.688 C 188.750 329.938,188.438 330.380,188.438 330.790 C 188.438 331.167,188.086 331.739,187.656 332.062 C 187.227 332.384,186.875 332.826,186.875 333.043 C 186.875 333.260,186.715 333.438,186.520 333.438 C 186.325 333.438,185.840 333.789,185.441 334.219 C 185.043 334.648,184.429 335.000,184.077 335.000 C 183.717 335.000,183.438 335.205,183.438 335.469 C 183.438 335.727,183.287 335.938,183.103 335.938 C 182.670 335.938,181.875 336.733,181.875 337.165 C 181.875 337.349,181.664 337.500,181.406 337.500 C 181.148 337.500,180.938 337.641,180.938 337.813 C 180.938 337.984,180.526 338.125,180.022 338.125 C 179.519 338.125,178.896 338.336,178.638 338.594 C 178.358 338.874,177.594 339.063,176.741 339.063 C 175.680 339.063,175.313 339.183,175.313 339.531 C 175.313 339.899,174.883 340.000,173.320 340.000 C 171.929 340.000,171.209 340.142,170.938 340.469 C 170.724 340.727,170.284 340.938,169.962 340.938 C 169.639 340.938,169.375 341.078,169.375 341.250 C 169.375 341.422,168.672 341.563,167.813 341.563 C 166.632 341.563,166.250 341.677,166.250 342.031 C 166.250 342.289,166.039 342.500,165.781 342.500 C 165.523 342.500,165.313 342.641,165.313 342.813 C 165.313 343.011,162.809 343.125,158.428 343.125 C 152.596 343.125,151.515 343.197,151.363 343.594 C 151.253 343.881,150.779 344.063,150.141 344.063 C 149.568 344.063,149.012 344.203,148.906 344.375 C 148.800 344.547,148.169 344.687,147.504 344.688 C 146.839 344.688,146.084 344.898,145.826 345.156 C 145.187 345.795,142.000 345.795,141.362 345.156 C 141.060 344.855,140.288 344.688,139.196 344.688 C 138.263 344.688,137.500 344.547,137.500 344.375 C 137.500 344.203,137.212 344.063,136.860 344.063 C 136.508 344.063,135.894 343.711,135.496 343.281 C 135.098 342.852,134.487 342.500,134.138 342.500 C 133.790 342.500,133.423 342.289,133.324 342.031 C 133.226 341.773,132.867 341.563,132.528 341.563 C 132.189 341.563,131.825 341.422,131.719 341.250 C 131.613 341.078,131.182 340.938,130.763 340.938 C 130.293 340.938,130.000 340.757,130.000 340.469 C 130.000 340.177,129.705 340.000,129.219 340.000 C 128.733 340.000,128.438 339.823,128.438 339.531 C 128.438 339.265,128.157 339.063,127.790 339.063 C 127.434 339.063,126.932 338.852,126.674 338.594 C 126.416 338.336,125.934 338.125,125.603 338.125 C 125.271 338.125,125.000 337.984,125.000 337.813 C 125.000 337.641,124.648 337.500,124.219 337.500 C 123.640 337.500,123.438 337.334,123.437 336.860 C 123.437 336.508,123.086 335.894,122.656 335.496 C 122.227 335.098,121.875 334.472,121.875 334.105 C 121.875 333.720,121.677 333.438,121.406 333.438 C 121.148 333.438,120.938 333.287,120.938 333.103 C 120.938 332.670,120.142 331.875,119.710 331.875 C 119.526 331.875,119.375 331.664,119.375 331.406 C 119.375 331.148,119.164 330.938,118.906 330.938 C 118.641 330.938,118.438 330.658,118.437 330.294 C 118.437 329.526,111.561 322.500,110.809 322.500 C 110.536 322.500,110.313 322.359,110.313 322.188 C 110.313 322.016,110.102 321.875,109.844 321.875 C 109.586 321.875,109.375 321.664,109.375 321.406 C 109.375 321.119,109.083 320.938,108.620 320.938 C 108.204 320.938,107.802 320.762,107.725 320.547 C 107.648 320.332,107.465 320.270,107.317 320.408 C 106.652 321.032,108.040 322.471,111.563 324.810 C 112.947 325.730,118.443 331.307,118.986 332.345 C 119.211 332.774,119.496 333.126,119.619 333.127 C 119.743 333.129,120.336 333.910,120.938 334.864 C 122.514 337.364,123.836 339.119,124.375 339.428 C 124.633 339.575,126.039 340.259,127.500 340.948 C 130.634 342.424,132.734 343.582,133.444 344.224 C 133.725 344.479,134.063 344.688,134.195 344.688 C 134.327 344.687,134.808 344.949,135.264 345.268 C 136.038 345.810,140.953 347.399,142.896 347.735 C 143.371 347.818,144.566 347.588,145.552 347.225 C 148.797 346.028,152.141 345.522,158.125 345.321 C 163.081 345.154,164.174 345.024,165.781 344.415 C 166.813 344.024,168.582 343.380,169.713 342.985 C 170.844 342.590,172.063 342.109,172.422 341.917 C 172.782 341.724,173.966 341.440,175.053 341.286 C 180.313 340.539,184.456 338.109,188.917 333.155 C 191.872 329.873,194.818 327.272,196.563 326.406 C 197.164 326.107,197.867 325.685,198.125 325.468 C 198.383 325.251,198.943 324.967,199.371 324.836 C 200.408 324.519,202.300 323.283,204.259 321.643 C 207.116 319.252,211.517 316.564,212.579 316.562 C 213.171 316.561,217.026 313.944,218.904 312.268 C 221.297 310.132,224.375 305.495,224.375 304.026 C 224.375 303.607,225.078 302.287,225.938 301.094 C 226.797 299.900,227.500 298.751,227.500 298.540 C 227.500 298.330,228.174 297.342,228.997 296.344 C 229.821 295.347,230.970 293.828,231.552 292.969 C 232.133 292.109,232.872 291.017,233.193 290.541 C 233.514 290.065,234.056 289.081,234.396 288.354 C 234.737 287.626,235.243 286.609,235.521 286.094 C 237.573 282.285,239.063 278.599,239.063 277.329 C 239.062 276.899,239.357 275.742,239.717 274.758 C 240.076 273.774,240.520 272.406,240.702 271.719 C 240.885 271.031,241.296 270.092,241.616 269.632 C 241.936 269.172,242.319 268.148,242.467 267.357 C 242.675 266.242,243.113 265.515,244.415 264.124 C 247.671 260.644,252.035 255.244,252.380 254.269 C 252.919 252.743,255.569 247.759,256.220 247.045 C 256.540 246.694,257.026 245.984,257.299 245.469 C 257.573 244.953,258.363 243.973,259.055 243.290 C 259.747 242.607,260.312 241.930,260.312 241.787 C 260.312 241.643,260.997 240.795,261.835 239.903 C 262.672 239.011,263.580 237.842,263.854 237.304 C 264.442 236.149,266.018 235.431,268.851 235.030 C 272.324 234.538,273.244 234.114,275.276 232.069 C 279.084 228.238,279.537 227.816,279.844 227.813 C 280.506 227.806,283.000 225.890,285.432 223.521 C 288.651 220.384,289.334 219.932,292.134 219.092 C 295.443 218.099,299.001 214.379,300.234 210.625 C 300.431 210.023,300.877 208.758,301.224 207.813 C 301.673 206.587,301.858 205.306,301.865 203.350 C 301.872 201.413,302.068 200.034,302.530 198.662 C 302.890 197.593,303.312 195.927,303.468 194.960 C 303.785 192.990,304.789 190.476,305.634 189.531 C 305.942 189.188,306.641 187.852,307.187 186.563 C 307.734 185.273,308.578 183.375,309.063 182.344 C 309.549 181.313,310.032 179.956,310.137 179.328 C 310.243 178.701,310.535 178.017,310.787 177.807 C 311.039 177.598,311.401 176.846,311.591 176.135 C 311.781 175.425,312.450 173.958,313.078 172.875 C 315.655 168.429,317.809 163.901,317.811 162.922 C 317.812 162.725,318.233 161.764,318.748 160.786 C 319.262 159.808,319.815 158.185,319.977 157.177 C 320.140 156.170,320.410 155.090,320.577 154.776 C 320.745 154.463,321.110 153.084,321.387 151.713 C 321.665 150.341,322.120 148.656,322.398 147.969 C 322.755 147.085,322.965 145.161,323.114 141.406 C 323.230 138.484,323.475 135.813,323.659 135.469 C 323.965 134.896,324.114 131.271,324.548 113.750 C 324.622 110.742,324.535 107.156,324.354 105.781 C 323.495 99.246,322.976 96.190,322.298 93.689 C 321.894 92.194,321.563 90.687,321.563 90.340 C 321.563 89.993,321.359 89.247,321.109 88.682 C 320.860 88.118,320.074 86.250,319.361 84.531 C 317.991 81.223,316.645 79.561,314.680 78.747 C 313.264 78.161,307.686 79.049,306.738 80.012 C 306.037 80.725,301.806 83.519,299.063 85.082 C 295.623 87.041,292.349 89.735,291.663 91.172 C 291.397 91.730,291.067 92.188,290.930 92.187 C 290.573 92.187,286.347 95.756,284.685 97.461 C 283.910 98.256,282.501 99.609,281.555 100.469 C 280.608 101.328,278.852 103.135,277.651 104.485 C 276.451 105.834,275.117 107.129,274.688 107.363 C 274.258 107.596,272.874 108.777,271.611 109.987 C 270.349 111.197,269.189 112.188,269.032 112.188 C 268.620 112.188,261.118 118.558,259.751 120.068 C 259.115 120.772,257.393 122.630,255.926 124.198 C 254.459 125.766,252.560 128.095,251.707 129.374 C 250.854 130.654,249.969 131.916,249.739 132.178 C 249.510 132.441,248.414 133.852,247.304 135.313 C 243.581 140.212,242.889 141.084,240.970 143.281 C 233.887 151.391,231.357 154.583,230.877 156.016 C 230.690 156.575,230.362 157.242,230.148 157.500 C 229.934 157.758,229.478 158.531,229.135 159.219 C 225.862 165.770,222.889 168.688,217.969 170.176 C 215.779 170.838,211.278 170.921,209.844 170.325 C 209.297 170.098,206.886 169.877,204.063 169.794 C 199.280 169.654,196.653 169.247,190.938 167.763 C 189.648 167.428,187.891 167.006,187.031 166.825 C 178.897 165.114,174.344 160.162,173.419 152.018 C 173.243 150.475,172.839 148.789,172.471 148.069 C 171.744 146.643,171.264 142.886,171.256 138.554 C 171.252 136.580,171.088 135.328,170.725 134.491 C 170.382 133.702,170.132 131.971,170.004 129.508 C 169.839 126.318,169.703 125.587,169.123 124.773 C 168.746 124.243,168.438 123.651,168.438 123.458 C 168.438 123.264,168.093 122.289,167.673 121.289 C 167.186 120.133,166.792 118.344,166.590 116.368 C 166.414 114.660,166.059 112.661,165.799 111.926 C 165.540 111.190,165.190 109.507,165.021 108.185 C 164.554 104.522,163.580 101.990,160.432 96.250 C 160.197 95.820,160.003 95.274,160.002 95.037 C 160.001 94.799,159.736 94.167,159.413 93.631 C 159.090 93.095,158.647 92.094,158.428 91.406 C 158.209 90.719,157.849 89.875,157.628 89.531 C 157.407 89.188,156.943 87.570,156.597 85.938 C 156.251 84.305,155.399 80.789,154.703 78.125 C 154.008 75.461,153.432 72.648,153.424 71.875 C 153.417 71.102,153.191 69.906,152.924 69.219 C 152.657 68.531,152.238 67.055,151.994 65.938 C 151.750 64.820,151.274 63.063,150.936 62.031 C 150.599 61.000,150.036 58.680,149.685 56.875 C 148.666 51.633,148.235 49.944,147.497 48.313 C 146.845 46.870,143.802 42.826,142.649 41.869 C 141.930 41.273,136.691 41.099,135.618 41.637 M149.836 46.877 C 151.144 51.156,151.404 51.742,151.508 50.651 C 151.577 49.923,151.453 49.495,151.117 49.307 C 150.823 49.142,150.625 48.613,150.625 47.991 C 150.625 47.408,150.400 46.764,150.111 46.525 C 149.651 46.143,149.622 46.180,149.836 46.877 M129.308 49.925 C 129.014 50.428,127.813 51.483,126.640 52.270 C 124.567 53.661,124.020 54.316,123.575 55.938 C 123.457 56.367,123.202 56.913,123.009 57.151 C 122.815 57.389,122.375 58.110,122.031 58.753 C 121.688 59.396,120.844 60.775,120.156 61.818 C 119.469 62.861,118.555 64.311,118.125 65.041 C 117.695 65.771,116.654 67.291,115.812 68.419 C 113.928 70.939,113.198 72.500,113.902 72.500 C 114.162 72.500,114.375 72.353,114.375 72.173 C 114.375 71.992,114.727 71.519,115.156 71.121 C 115.586 70.723,115.938 70.097,115.938 69.730 C 115.938 69.345,116.136 69.063,116.406 69.063 C 116.664 69.063,116.875 68.852,116.875 68.594 C 116.875 68.336,117.086 68.125,117.344 68.125 C 117.635 68.125,117.813 67.830,117.813 67.344 C 117.813 66.914,117.953 66.563,118.125 66.563 C 118.297 66.563,118.438 66.211,118.438 65.781 C 118.438 65.295,118.615 65.000,118.906 65.000 C 119.164 65.000,119.375 64.804,119.375 64.565 C 119.375 64.325,119.586 64.048,119.844 63.949 C 120.102 63.851,120.313 63.484,120.313 63.135 C 120.313 62.786,120.453 62.500,120.625 62.500 C 120.797 62.500,120.938 62.289,120.938 62.031 C 120.938 61.773,121.148 61.563,121.406 61.563 C 121.698 61.563,121.875 61.267,121.875 60.781 C 121.875 60.352,122.013 60.000,122.182 60.000 C 122.350 60.000,122.576 59.648,122.684 59.219 C 122.792 58.789,123.006 58.438,123.159 58.438 C 123.312 58.438,123.438 58.082,123.438 57.646 C 123.438 57.211,123.648 56.774,123.906 56.676 C 124.164 56.577,124.375 56.159,124.375 55.748 C 124.375 55.193,124.547 55.000,125.042 55.000 C 125.409 55.000,126.035 54.648,126.434 54.219 C 126.832 53.789,127.446 53.438,127.798 53.438 C 128.150 53.438,128.438 53.242,128.438 53.002 C 128.438 52.763,128.648 52.486,128.906 52.387 C 129.164 52.288,129.375 51.933,129.375 51.598 C 129.375 51.264,129.528 50.939,129.715 50.876 C 129.902 50.814,130.007 50.369,129.949 49.887 L 129.844 49.011 129.308 49.925 M151.791 54.453 C 152.016 56.213,152.188 56.345,152.188 54.758 C 152.188 54.052,152.060 53.396,151.905 53.300 C 151.743 53.200,151.695 53.695,151.791 54.453 M152.506 57.681 C 152.869 59.291,153.125 59.367,153.125 57.865 C 153.125 56.959,152.992 56.563,152.689 56.563 C 152.351 56.563,152.310 56.812,152.506 57.681 M153.467 61.797 C 153.619 62.441,153.949 63.531,154.202 64.219 L 154.660 65.469 154.674 63.984 C 154.681 63.168,154.564 62.500,154.414 62.500 C 154.264 62.500,154.056 62.078,153.953 61.563 C 153.850 61.047,153.636 60.625,153.479 60.625 C 153.306 60.625,153.302 61.093,153.467 61.797 M155.000 67.131 C 155.000 67.443,155.230 68.463,155.511 69.396 C 155.793 70.330,156.123 71.867,156.246 72.813 C 156.456 74.422,156.472 74.358,156.496 71.822 C 156.516 69.740,156.418 69.074,156.073 68.942 C 155.801 68.837,155.625 68.336,155.625 67.666 C 155.625 67.059,155.484 66.563,155.313 66.563 C 155.141 66.563,155.000 66.818,155.000 67.131 M112.692 73.875 C 112.414 74.460,112.185 75.058,112.182 75.203 C 112.176 75.495,110.709 77.815,109.726 79.087 C 108.685 80.435,106.878 86.250,107.500 86.250 C 107.672 86.250,107.813 85.913,107.813 85.502 C 107.813 85.091,108.023 84.673,108.281 84.574 C 108.602 84.451,108.750 83.949,108.750 82.979 C 108.750 82.200,108.891 81.563,109.063 81.563 C 109.234 81.563,109.375 81.352,109.375 81.094 C 109.375 80.836,109.586 80.625,109.844 80.625 C 110.108 80.625,110.313 80.346,110.313 79.985 C 110.313 79.633,110.664 79.019,111.094 78.621 C 111.523 78.223,111.875 77.612,111.875 77.263 C 111.875 76.915,112.086 76.548,112.344 76.449 C 112.602 76.351,112.817 76.019,112.822 75.713 C 112.828 75.407,113.039 74.883,113.291 74.550 C 113.797 73.881,113.909 72.813,113.473 72.813 C 113.321 72.813,112.969 73.291,112.692 73.875 M308.750 74.219 C 308.750 74.579,308.351 74.688,307.031 74.688 C 305.953 74.688,305.313 74.820,305.313 75.044 C 305.313 75.510,304.355 76.227,303.716 76.240 C 303.439 76.246,302.949 76.602,302.626 77.031 C 302.303 77.461,301.752 77.813,301.402 77.813 C 300.764 77.813,299.688 78.796,299.688 79.379 C 299.688 79.548,299.346 79.688,298.929 79.688 C 298.492 79.688,297.910 80.019,297.556 80.469 C 297.218 80.898,296.665 81.250,296.327 81.250 C 295.989 81.250,295.449 81.602,295.126 82.031 C 294.803 82.462,294.222 82.813,293.832 82.813 C 293.412 82.813,293.125 83.003,293.125 83.281 C 293.125 83.539,292.914 83.750,292.656 83.750 C 292.398 83.750,292.188 83.961,292.188 84.219 C 292.188 84.477,292.037 84.688,291.853 84.688 C 291.669 84.688,291.317 84.888,291.071 85.134 C 290.826 85.379,290.625 85.731,290.625 85.915 C 290.625 86.099,290.304 86.250,289.913 86.250 C 289.111 86.250,287.188 88.106,287.188 88.879 C 287.188 89.152,286.964 89.375,286.691 89.375 C 286.418 89.375,284.298 91.273,281.980 93.594 C 279.663 95.914,277.555 97.813,277.297 97.813 C 276.684 97.813,275.000 99.502,275.000 100.117 C 275.000 100.742,271.373 104.375,270.748 104.375 C 270.210 104.375,265.938 108.521,265.938 109.043 C 265.938 109.226,265.539 109.375,265.053 109.375 C 264.429 109.375,264.045 109.605,263.750 110.156 C 263.520 110.586,263.145 110.938,262.916 110.938 C 262.687 110.938,262.500 111.148,262.500 111.406 C 262.500 111.664,262.289 111.875,262.031 111.875 C 261.773 111.875,261.563 112.016,261.563 112.188 C 261.563 112.359,261.331 112.500,261.048 112.500 C 260.293 112.500,254.375 118.584,254.375 119.360 C 254.375 119.721,254.170 120.000,253.906 120.000 C 253.648 120.000,253.438 120.187,253.438 120.416 C 253.438 120.645,253.086 121.020,252.656 121.250 C 252.227 121.480,251.875 121.855,251.875 122.084 C 251.875 122.313,251.745 122.500,251.587 122.500 C 251.134 122.500,249.375 124.374,249.375 124.857 C 249.375 125.096,248.953 125.723,248.438 126.250 C 247.922 126.777,247.500 127.394,247.500 127.619 C 247.500 127.845,247.008 128.536,246.406 129.155 C 245.805 129.775,245.313 130.570,245.313 130.922 C 245.313 131.274,245.183 131.563,245.024 131.563 C 244.566 131.563,242.813 133.440,242.813 133.930 C 242.813 134.175,242.039 135.131,241.094 136.053 C 240.148 136.976,239.375 138.007,239.375 138.344 C 239.375 138.681,239.023 139.145,238.594 139.375 C 238.164 139.605,237.813 139.915,237.813 140.064 C 237.813 140.212,236.898 141.213,235.781 142.287 C 234.480 143.538,233.750 144.489,233.750 144.932 C 233.750 145.313,233.605 145.625,233.427 145.625 C 233.023 145.625,231.250 147.415,231.250 147.823 C 231.250 147.989,231.091 148.125,230.896 148.125 C 230.399 148.125,229.375 149.370,229.375 149.974 C 229.375 150.250,229.023 150.741,228.594 151.063 C 228.164 151.386,227.808 151.876,227.803 152.153 C 227.790 152.792,227.072 153.750,226.606 153.750 C 226.407 153.750,226.250 154.237,226.250 154.859 C 226.250 155.640,226.019 156.181,225.469 156.691 C 224.911 157.208,224.688 157.741,224.688 158.551 C 224.688 159.176,224.548 159.688,224.379 159.688 C 223.849 159.688,222.813 160.739,222.813 161.277 C 222.813 161.915,221.415 163.344,220.515 163.626 C 220.146 163.742,219.534 164.169,219.156 164.575 C 218.735 165.025,218.111 165.313,217.553 165.313 C 217.050 165.313,216.464 165.523,216.250 165.781 C 216.036 166.039,215.597 166.250,215.274 166.250 C 214.952 166.250,214.688 166.391,214.688 166.563 C 214.688 166.734,214.195 166.875,213.594 166.875 C 212.992 166.875,212.500 166.734,212.500 166.563 C 212.500 166.391,211.938 166.250,211.250 166.250 C 210.347 166.250,210.000 166.120,210.000 165.781 C 210.000 165.380,209.097 165.313,203.750 165.313 C 198.403 165.313,197.500 165.245,197.500 164.844 C 197.500 164.505,197.153 164.375,196.250 164.375 C 195.563 164.375,195.000 164.234,195.000 164.063 C 195.000 163.882,194.022 163.750,192.690 163.750 C 190.924 163.750,190.337 163.639,190.199 163.281 C 190.101 163.023,189.664 162.813,189.229 162.813 C 188.734 162.813,188.438 162.637,188.438 162.344 C 188.438 161.990,188.056 161.875,186.875 161.875 C 186.016 161.875,185.313 161.734,185.313 161.563 C 185.313 161.391,184.957 161.250,184.521 161.250 C 184.086 161.250,183.649 161.039,183.551 160.781 C 183.452 160.523,183.034 160.313,182.623 160.313 C 182.212 160.313,181.875 160.172,181.875 160.000 C 181.875 159.828,181.523 159.688,181.094 159.688 C 180.608 159.688,180.313 159.510,180.313 159.219 C 180.313 158.961,180.102 158.750,179.844 158.750 C 179.586 158.750,179.375 158.599,179.375 158.415 C 179.375 157.983,178.580 157.188,178.147 157.188 C 176.132 157.188,182.758 163.408,184.819 163.451 C 185.176 163.459,186.031 163.681,186.719 163.944 C 187.406 164.208,189.164 164.686,190.625 165.006 C 192.086 165.325,193.848 165.790,194.541 166.037 C 195.263 166.294,198.320 166.645,201.696 166.857 C 204.939 167.061,208.924 167.506,210.553 167.846 C 217.500 169.297,222.632 166.258,226.591 158.352 C 227.299 156.938,228.002 155.570,228.154 155.313 C 228.306 155.055,228.733 154.281,229.101 153.594 C 229.904 152.097,235.017 145.793,238.147 142.440 C 239.381 141.118,240.643 139.622,240.951 139.115 C 241.260 138.608,241.668 138.097,241.859 137.979 C 242.155 137.796,244.053 135.364,247.567 130.666 C 248.034 130.042,249.037 128.617,249.796 127.500 C 250.555 126.383,252.229 124.328,253.516 122.933 C 254.802 121.539,256.429 119.621,257.130 118.671 C 257.913 117.611,259.936 115.754,262.366 113.863 C 264.545 112.168,267.329 109.879,268.554 108.776 C 269.779 107.673,271.280 106.407,271.889 105.963 C 272.498 105.520,274.062 103.961,275.364 102.500 C 276.667 101.039,279.543 98.228,281.757 96.253 C 283.970 94.278,286.836 91.594,288.125 90.289 C 290.937 87.442,294.387 84.553,296.456 83.312 C 297.288 82.813,299.358 81.477,301.055 80.343 C 302.753 79.209,304.792 77.850,305.586 77.322 C 307.390 76.124,309.822 75.625,313.850 75.625 L 316.970 75.625 318.576 77.266 C 319.460 78.168,320.415 79.258,320.700 79.688 L 321.217 80.469 321.234 79.385 C 321.245 78.617,321.033 78.115,320.506 77.662 C 320.097 77.310,319.709 76.743,319.644 76.402 C 319.567 75.996,319.230 75.747,318.669 75.682 C 318.180 75.626,317.813 75.391,317.813 75.135 C 317.813 74.780,317.238 74.688,315.033 74.688 C 312.851 74.688,312.216 74.587,312.074 74.219 C 311.948 73.888,311.432 73.750,310.322 73.750 C 309.133 73.750,308.750 73.864,308.750 74.219 M156.922 76.250 C 156.896 76.680,157.150 77.734,157.486 78.594 L 158.096 80.156 158.110 78.672 C 158.121 77.585,158.005 77.188,157.677 77.188 C 157.428 77.188,157.171 76.805,157.099 76.328 C 156.974 75.504,156.967 75.501,156.922 76.250 M158.447 82.139 C 158.442 82.715,158.684 83.980,158.984 84.952 L 159.531 86.719 159.630 85.336 C 159.699 84.364,159.592 83.878,159.268 83.697 C 159.006 83.550,158.876 83.181,158.965 82.839 C 159.051 82.509,158.972 81.981,158.789 81.666 C 158.506 81.178,158.455 81.248,158.447 82.139 M321.620 82.266 C 322.135 83.816,322.813 84.432,322.813 83.348 C 322.813 82.882,322.531 82.219,322.188 81.875 C 321.329 81.016,321.228 81.086,321.620 82.266 M323.145 85.859 C 323.291 86.504,323.618 87.594,323.871 88.281 L 324.331 89.531 324.353 88.378 C 324.365 87.743,324.234 87.137,324.063 87.031 C 323.891 86.925,323.750 86.354,323.750 85.763 C 323.750 85.052,323.602 84.688,323.314 84.688 C 322.972 84.688,322.936 84.939,323.145 85.859 M159.871 87.143 C 159.663 87.480,160.568 90.240,160.967 90.487 C 161.123 90.583,161.250 90.232,161.250 89.706 C 161.250 89.180,161.109 88.750,160.938 88.750 C 160.766 88.750,160.625 88.407,160.625 87.987 C 160.625 87.185,160.164 86.669,159.871 87.143 M106.355 89.219 C 105.497 91.430,105.317 92.238,105.711 92.107 C 105.922 92.037,106.145 91.710,106.208 91.380 C 106.271 91.051,106.457 90.696,106.622 90.592 C 106.787 90.488,106.876 89.926,106.820 89.342 L 106.719 88.281 106.355 89.219 M161.563 91.772 C 161.563 92.292,163.062 95.701,163.945 97.188 C 164.200 97.617,164.619 98.461,164.875 99.063 C 165.997 101.699,166.082 101.798,166.197 100.610 C 166.254 100.026,166.148 99.497,165.963 99.435 C 165.777 99.374,165.625 99.049,165.625 98.714 C 165.625 98.379,165.414 98.024,165.156 97.926 C 164.898 97.827,164.688 97.405,164.688 96.988 C 164.688 96.571,164.477 96.149,164.219 96.051 C 163.961 95.952,163.750 95.534,163.750 95.123 C 163.750 94.712,163.609 94.375,163.438 94.375 C 163.266 94.375,163.125 94.089,163.125 93.740 C 163.125 93.391,162.914 93.024,162.656 92.926 C 162.398 92.827,162.188 92.409,162.188 91.998 C 162.188 91.587,162.047 91.250,161.875 91.250 C 161.703 91.250,161.563 91.485,161.563 91.772 M324.896 93.203 C 325.168 94.627,325.313 94.673,325.313 93.333 C 325.313 92.703,325.175 92.188,325.008 92.188 C 324.833 92.188,324.785 92.620,324.896 93.203 M104.602 94.179 C 104.305 94.844,104.082 95.829,104.105 96.366 C 104.142 97.210,104.166 97.237,104.283 96.563 C 104.358 96.133,104.630 95.618,104.888 95.418 C 105.185 95.188,105.317 94.675,105.249 94.012 L 105.142 92.969 104.602 94.179 M325.507 95.547 C 325.774 96.661,325.880 96.763,326.120 96.138 C 326.359 95.515,326.079 94.688,325.629 94.688 C 325.429 94.688,325.381 95.024,325.507 95.547 M326.052 99.844 C 326.052 101.563,326.105 102.226,326.168 101.318 C 326.232 100.410,326.231 99.003,326.167 98.193 C 326.103 97.382,326.051 98.125,326.052 99.844 M103.156 99.109 C 102.725 100.345,102.721 100.313,103.281 100.313 C 103.609 100.313,103.750 99.983,103.750 99.219 C 103.750 97.866,103.599 97.838,103.156 99.109 M102.547 100.938 C 102.518 101.195,102.150 102.145,101.730 103.048 C 100.804 105.035,100.407 106.875,100.903 106.875 C 101.094 106.875,101.250 106.538,101.250 106.127 C 101.250 105.716,101.461 105.298,101.719 105.199 C 102.010 105.088,102.188 104.612,102.188 103.942 C 102.188 103.349,102.339 102.814,102.525 102.752 C 102.716 102.688,102.806 102.168,102.731 101.554 C 102.659 100.957,102.576 100.680,102.547 100.938 M166.563 102.987 C 166.563 103.083,166.837 104.524,167.173 106.190 C 167.508 107.856,167.841 109.570,167.913 110.000 C 167.985 110.430,168.047 109.626,168.051 108.213 C 168.056 106.394,167.931 105.540,167.623 105.285 C 167.383 105.086,167.188 104.449,167.188 103.868 C 167.188 103.287,167.047 102.813,166.875 102.813 C 166.703 102.813,166.563 102.891,166.563 102.987 M326.648 104.063 C 326.648 104.836,326.709 105.152,326.783 104.766 C 326.858 104.379,326.858 103.746,326.783 103.359 C 326.709 102.973,326.648 103.289,326.648 104.063 M327.031 108.595 C 327.031 110.226,327.152 111.210,327.344 111.147 C 327.517 111.089,327.656 109.949,327.656 108.595 C 327.656 107.241,327.517 106.101,327.344 106.043 C 327.152 105.979,327.031 106.963,327.031 108.595 M168.305 112.079 C 168.426 112.740,168.646 113.607,168.794 114.005 C 168.942 114.403,169.072 115.176,169.084 115.723 C 169.134 117.965,169.644 117.947,169.666 115.703 C 169.683 113.888,169.594 113.438,169.219 113.438 C 168.893 113.438,168.750 113.110,168.750 112.362 C 168.750 111.771,168.600 111.194,168.418 111.081 C 168.191 110.941,168.155 111.259,168.305 112.079 M99.609 119.121 C 98.991 121.470,98.919 122.500,99.375 122.500 C 99.547 122.500,99.688 122.036,99.688 121.469 C 99.688 120.902,99.837 120.288,100.020 120.105 C 100.203 119.922,100.308 119.159,100.254 118.409 L 100.156 117.045 99.609 119.121 M326.635 125.841 C 326.595 129.827,326.435 133.167,326.280 133.263 C 326.125 133.359,325.907 134.949,325.797 136.797 C 325.686 138.644,325.542 141.035,325.477 142.109 C 325.412 143.184,325.474 144.063,325.615 144.063 C 326.101 144.063,326.195 143.200,326.233 138.418 C 326.255 135.646,326.401 133.537,326.579 133.427 C 326.771 133.309,326.853 130.487,326.797 125.915 L 326.707 118.594 326.635 125.841 M169.844 119.766 C 170.469 121.985,171.250 122.982,171.250 121.563 C 171.250 121.215,171.042 120.938,170.781 120.938 C 170.469 120.938,170.313 120.625,170.313 120.000 C 170.313 119.484,170.162 119.063,169.979 119.063 C 169.783 119.063,169.727 119.352,169.844 119.766 M171.355 123.161 C 171.464 123.571,171.556 124.082,171.558 124.297 C 171.561 124.512,171.712 124.688,171.895 124.688 C 172.385 124.688,172.108 122.729,171.593 122.560 C 171.267 122.453,171.206 122.606,171.355 123.161 M172.047 125.547 C 172.178 125.848,172.382 127.289,172.500 128.750 L 172.713 131.406 172.763 128.203 C 172.806 125.449,172.742 125.000,172.310 125.000 C 171.949 125.000,171.875 125.154,172.047 125.547 M99.213 132.943 C 99.209 135.421,99.315 137.381,99.447 137.299 C 99.757 137.107,99.763 128.437,99.453 128.438 C 99.324 128.438,99.216 130.465,99.213 132.943 M173.232 134.297 C 173.535 135.279,173.610 135.351,173.697 134.743 C 173.819 133.878,173.571 133.125,173.164 133.125 C 172.994 133.125,173.022 133.616,173.232 134.297 M98.359 140.729 C 97.990 141.630,98.060 142.690,98.462 142.288 C 98.647 142.103,98.753 141.547,98.696 141.054 C 98.612 140.317,98.552 140.259,98.359 140.729 M173.750 141.797 C 173.750 142.798,175.217 148.296,175.743 149.267 L 176.225 150.156 176.237 148.672 C 176.247 147.555,176.134 147.188,175.781 147.188 C 175.490 147.188,175.313 146.892,175.313 146.406 C 175.313 145.977,175.172 145.625,175.000 145.625 C 174.827 145.625,174.688 144.804,174.688 143.788 C 174.688 142.537,174.538 141.828,174.219 141.563 C 173.829 141.239,173.750 141.278,173.750 141.797 M324.888 146.505 C 324.744 147.247,324.710 147.939,324.813 148.042 C 325.187 148.416,325.350 147.849,325.251 146.517 L 325.151 145.156 324.888 146.505 M97.449 151.094 C 97.391 152.212,97.449 153.126,97.578 153.126 C 97.707 153.125,97.813 152.211,97.813 151.094 C 97.813 148.471,97.584 148.471,97.449 151.094 M323.672 151.449 C 323.057 153.545,322.974 154.688,323.438 154.688 C 323.609 154.688,323.750 154.137,323.750 153.464 C 323.750 152.790,323.901 152.189,324.086 152.128 C 324.273 152.065,324.376 151.478,324.320 150.801 L 324.219 149.586 323.672 151.449 M176.554 154.141 C 176.917 156.488,177.813 157.656,177.813 155.781 C 177.813 154.999,177.674 154.688,177.325 154.688 C 177.057 154.688,176.926 154.546,177.033 154.372 C 177.267 153.993,176.933 152.813,176.591 152.813 C 176.458 152.813,176.441 153.410,176.554 154.141 M322.076 157.913 C 321.758 159.038,321.565 160.144,321.647 160.370 C 321.730 160.596,321.907 160.359,322.041 159.844 C 322.174 159.328,322.412 158.822,322.568 158.719 C 322.725 158.616,322.809 157.932,322.755 157.200 L 322.656 155.867 322.076 157.913 M96.807 160.703 C 96.728 161.777,96.769 163.008,96.898 163.438 C 97.049 163.937,97.143 163.231,97.161 161.484 C 97.192 158.297,97.013 157.901,96.807 160.703 M320.641 162.637 C 320.436 162.884,319.713 164.669,319.035 166.603 C 318.357 168.537,317.603 170.339,317.360 170.607 C 316.788 171.239,316.190 172.813,316.522 172.813 C 317.003 172.813,317.813 171.671,317.813 170.991 C 317.813 170.596,318.009 170.313,318.281 170.313 C 318.567 170.313,318.750 170.021,318.750 169.565 C 318.750 169.153,318.942 168.743,319.176 168.653 C 319.441 168.552,319.602 168.000,319.602 167.194 C 319.602 166.481,319.762 165.738,319.957 165.543 C 320.153 165.347,320.313 164.864,320.313 164.469 C 320.313 164.038,320.500 163.750,320.781 163.750 C 321.073 163.750,321.250 163.455,321.250 162.969 C 321.250 162.068,321.156 162.016,320.641 162.637 M97.533 166.728 C 97.799 168.153,98.632 169.722,100.347 172.031 C 100.858 172.719,101.965 174.336,102.808 175.625 C 105.176 179.250,105.282 179.372,105.299 178.516 C 105.307 178.093,105.126 177.813,104.844 177.813 C 104.531 177.813,104.375 177.500,104.375 176.875 C 104.375 176.359,104.234 175.938,104.063 175.938 C 103.891 175.938,103.750 175.586,103.750 175.156 C 103.750 174.727,103.590 174.375,103.394 174.375 C 102.934 174.375,102.210 173.421,102.197 172.798 C 102.192 172.532,101.772 171.969,101.263 171.548 C 100.755 171.126,100.333 170.525,100.326 170.212 C 100.311 169.582,99.605 168.750,99.085 168.750 C 98.901 168.750,98.750 168.328,98.750 167.813 C 98.750 167.188,98.594 166.875,98.281 166.875 C 97.990 166.875,97.813 166.580,97.813 166.094 C 97.813 165.664,97.690 165.313,97.540 165.313 C 97.387 165.313,97.384 165.930,97.533 166.728 M315.385 173.984 C 313.996 175.993,312.752 179.375,313.404 179.375 C 313.594 179.375,313.750 179.038,313.750 178.627 C 313.750 178.216,313.961 177.798,314.219 177.699 C 314.477 177.601,314.688 177.234,314.688 176.885 C 314.688 176.536,314.828 176.250,315.000 176.250 C 315.172 176.250,315.313 176.039,315.313 175.781 C 315.313 175.523,315.523 175.313,315.781 175.313 C 316.109 175.313,316.250 174.983,316.250 174.219 C 316.250 172.900,316.154 172.874,315.385 173.984 M105.313 179.535 C 105.313 180.360,106.732 182.562,106.828 181.885 C 106.887 181.461,106.782 181.063,106.593 181.000 C 106.404 180.937,106.250 180.546,106.250 180.130 C 106.250 179.667,106.069 179.375,105.781 179.375 C 105.523 179.375,105.313 179.447,105.313 179.535 M312.228 180.420 C 311.703 181.053,311.414 182.813,311.836 182.813 C 312.029 182.813,312.188 182.662,312.188 182.478 C 312.188 182.294,312.398 181.932,312.656 181.674 C 313.163 181.168,313.298 180.000,312.851 180.000 C 312.700 180.000,312.420 180.189,312.228 180.420 M107.110 182.681 C 106.832 182.960,107.732 185.537,109.156 188.541 C 109.904 190.117,110.812 192.039,111.176 192.813 L 111.836 194.219 111.856 193.065 C 111.866 192.431,111.734 191.825,111.563 191.719 C 111.391 191.613,111.250 191.248,111.250 190.909 C 111.250 190.570,111.039 190.212,110.781 190.113 C 110.523 190.014,110.313 189.597,110.313 189.185 C 110.313 188.729,110.130 188.438,109.844 188.438 C 109.556 188.438,109.375 188.145,109.375 187.682 C 109.375 187.267,109.204 186.870,108.995 186.800 C 108.771 186.726,108.646 186.217,108.690 185.561 C 108.741 184.800,108.614 184.390,108.289 184.265 C 108.027 184.164,107.813 183.805,107.813 183.466 C 107.813 182.837,107.407 182.384,107.110 182.681 M310.428 185.156 C 310.068 185.844,309.531 187.146,309.236 188.050 C 308.940 188.954,308.188 190.430,307.566 191.331 C 305.912 193.724,304.214 198.960,305.313 198.281 C 305.484 198.175,305.625 197.815,305.625 197.482 C 305.625 197.148,305.766 196.875,305.938 196.875 C 306.109 196.875,306.250 196.313,306.250 195.625 C 306.250 194.722,306.380 194.375,306.719 194.375 C 306.977 194.375,307.188 194.179,307.188 193.940 C 307.188 193.700,307.414 193.417,307.692 193.311 C 308.012 193.188,308.136 192.890,308.033 192.496 C 307.928 192.094,308.026 191.875,308.311 191.875 C 308.566 191.875,308.750 191.561,308.750 191.127 C 308.750 190.716,308.961 190.298,309.219 190.199 C 309.510 190.088,309.688 189.612,309.688 188.942 C 309.688 188.349,309.850 187.811,310.048 187.745 C 310.246 187.679,310.431 187.304,310.460 186.912 C 310.489 186.521,310.690 186.091,310.906 185.957 C 311.124 185.822,311.252 185.309,311.192 184.810 L 311.083 183.906 310.428 185.156 M112.353 196.328 C 112.474 197.059,112.697 197.893,112.849 198.183 C 113.001 198.472,113.137 199.105,113.152 199.589 L 113.179 200.469 113.472 199.531 C 113.800 198.478,113.568 196.563,113.111 196.563 C 112.947 196.563,112.813 196.211,112.813 195.781 C 112.813 195.352,112.660 195.000,112.473 195.000 C 112.246 195.000,112.206 195.445,112.353 196.328 M304.267 202.891 C 303.982 206.549,304.015 208.125,304.375 208.125 C 304.567 208.125,304.688 206.615,304.688 204.219 C 304.688 199.685,304.550 199.252,304.267 202.891 M112.623 209.614 C 112.272 211.115,112.021 212.393,112.065 212.453 C 112.347 212.835,112.813 211.977,112.813 211.075 C 112.813 210.484,112.947 210.000,113.111 210.000 C 113.534 210.000,113.864 207.961,113.536 207.374 C 113.340 207.024,113.079 207.665,112.623 209.614 M303.133 210.078 C 299.689 217.934,296.685 221.504,292.661 222.520 C 290.583 223.045,289.029 224.062,286.511 226.545 C 284.302 228.723,283.534 229.322,281.271 230.629 C 280.821 230.889,279.096 232.458,277.439 234.115 C 274.304 237.251,273.630 237.623,269.946 238.259 C 267.348 238.707,265.665 239.382,265.449 240.063 C 265.331 240.434,264.330 241.643,263.223 242.749 C 262.117 243.855,260.834 245.325,260.372 246.016 C 259.909 246.706,259.145 247.850,258.673 248.557 C 257.475 250.353,256.871 251.700,257.209 251.822 C 257.702 252.000,258.438 251.017,258.438 250.179 C 258.438 249.737,258.577 249.375,258.746 249.375 C 259.255 249.375,260.312 248.334,260.322 247.821 C 260.335 247.203,261.061 246.250,261.519 246.250 C 261.715 246.250,261.875 246.063,261.875 245.834 C 261.875 245.605,262.227 245.230,262.656 245.000 C 263.086 244.770,263.438 244.395,263.438 244.166 C 263.438 243.937,263.648 243.750,263.906 243.750 C 264.164 243.750,264.375 243.554,264.375 243.315 C 264.375 243.075,264.596 242.795,264.865 242.691 C 265.191 242.566,265.289 242.293,265.157 241.877 C 264.987 241.342,265.099 241.250,265.916 241.250 C 266.560 241.250,266.875 241.096,266.875 240.781 C 266.875 240.413,267.309 240.313,268.906 240.313 C 270.052 240.313,270.938 240.176,270.938 240.000 C 270.938 239.828,271.583 239.688,272.372 239.688 C 273.768 239.688,276.563 237.595,276.563 236.551 C 276.563 236.385,276.714 236.250,276.899 236.250 C 277.084 236.250,277.647 235.839,278.149 235.337 C 278.651 234.834,279.063 234.272,279.063 234.087 C 279.063 233.901,279.273 233.750,279.531 233.750 C 279.789 233.750,280.000 233.609,280.000 233.438 C 280.000 233.266,280.352 233.125,280.781 233.125 C 281.267 233.125,281.563 232.948,281.563 232.656 C 281.563 232.398,281.773 232.188,282.031 232.188 C 282.289 232.188,282.500 231.977,282.500 231.719 C 282.500 231.459,282.777 231.250,283.121 231.250 C 283.890 231.250,284.997 230.339,285.010 229.696 C 285.025 228.972,285.781 228.125,286.411 228.125 C 286.719 228.125,287.507 227.563,288.161 226.875 C 288.815 226.188,289.637 225.625,289.987 225.625 C 290.346 225.625,290.625 225.420,290.625 225.156 C 290.625 224.868,290.918 224.688,291.388 224.688 C 291.807 224.688,292.238 224.547,292.344 224.375 C 292.450 224.203,293.021 224.063,293.612 224.063 C 294.338 224.063,294.688 223.917,294.688 223.615 C 294.688 223.358,295.055 223.124,295.547 223.068 C 296.154 222.998,296.435 222.768,296.504 222.285 C 296.564 221.859,296.859 221.564,297.285 221.504 C 297.715 221.442,298.005 221.148,298.068 220.709 C 298.122 220.326,298.509 219.743,298.927 219.414 C 299.345 219.085,299.693 218.555,299.701 218.236 C 299.708 217.917,300.130 217.311,300.638 216.890 C 301.147 216.468,301.563 215.879,301.563 215.580 C 301.563 215.281,301.703 214.950,301.875 214.844 C 302.047 214.738,302.188 214.307,302.188 213.888 C 302.188 213.418,302.368 213.125,302.656 213.125 C 302.985 213.125,303.125 212.793,303.125 212.009 C 303.125 211.395,303.336 210.682,303.594 210.424 C 304.040 209.978,304.256 208.750,303.889 208.750 C 303.793 208.750,303.453 209.348,303.133 210.078 M111.282 215.313 C 110.563 217.627,110.345 219.103,110.743 218.973 C 110.936 218.910,111.140 218.378,111.197 217.791 C 111.254 217.204,111.440 216.638,111.610 216.533 C 111.779 216.428,111.873 215.794,111.819 215.124 L 111.719 213.906 111.282 215.313 M109.553 222.116 C 109.253 223.107,109.069 224.338,109.144 224.850 C 109.254 225.592,109.291 225.512,109.328 224.453 C 109.362 223.502,109.508 223.125,109.844 223.125 C 110.191 223.125,110.313 222.760,110.313 221.719 C 110.313 219.891,110.211 219.944,109.553 222.116 M109.148 235.000 C 109.148 235.773,109.209 236.090,109.283 235.703 C 109.358 235.316,109.358 234.684,109.283 234.297 C 109.209 233.910,109.148 234.227,109.148 235.000 M109.388 237.266 C 109.396 237.309,109.595 238.117,109.830 239.063 L 110.259 240.781 110.286 238.984 C 110.307 237.584,110.209 237.188,109.844 237.188 C 109.586 237.188,109.381 237.223,109.388 237.266 M109.883 252.885 C 109.736 254.042,109.735 255.519,109.881 256.166 L 110.146 257.344 110.246 255.703 C 110.300 254.801,110.301 253.324,110.247 252.422 L 110.149 250.781 109.883 252.885 M256.290 252.857 C 255.744 253.741,255.288 255.313,255.577 255.313 C 256.141 255.313,256.903 253.942,256.815 253.089 C 256.719 252.170,256.716 252.168,256.290 252.857 M253.906 257.554 C 253.219 258.423,251.422 260.700,249.913 262.614 C 246.899 266.436,246.859 266.481,245.374 267.728 C 244.499 268.461,243.412 270.938,243.964 270.938 C 244.314 270.938,248.751 266.262,248.760 265.885 C 248.774 265.317,249.520 264.375,249.956 264.375 C 250.152 264.375,250.313 264.164,250.313 263.906 C 250.313 263.648,250.523 263.438,250.781 263.438 C 251.073 263.438,251.250 263.142,251.250 262.656 C 251.250 262.227,251.391 261.875,251.563 261.875 C 251.734 261.875,251.875 261.664,251.875 261.406 C 251.875 261.148,252.026 260.938,252.212 260.938 C 252.397 260.938,252.959 260.526,253.462 260.024 C 253.964 259.522,254.375 258.959,254.375 258.774 C 254.375 258.589,254.586 258.438,254.844 258.438 C 255.182 258.438,255.313 258.090,255.313 257.188 C 255.313 256.500,255.277 255.946,255.234 255.955 C 255.191 255.965,254.594 256.684,253.906 257.554 M110.543 258.667 C 110.474 258.798,110.587 259.750,110.794 260.781 L 111.170 262.656 111.210 260.722 C 111.245 259.018,110.906 257.974,110.543 258.667 M111.289 265.391 C 111.386 270.302,111.775 271.884,111.826 267.578 C 111.857 264.993,111.758 263.438,111.563 263.438 C 111.383 263.438,111.267 264.271,111.289 265.391 M243.018 273.163 C 242.703 273.957,242.509 274.941,242.587 275.350 C 242.696 275.927,242.737 275.862,242.770 275.060 C 242.795 274.454,242.943 274.106,243.127 274.220 C 243.547 274.480,243.821 273.698,243.693 272.605 C 243.596 271.771,243.556 271.803,243.018 273.163 M241.495 277.243 C 240.757 278.673,240.472 280.000,240.904 280.000 C 241.094 280.000,241.250 279.699,241.250 279.331 C 241.250 278.964,241.473 278.500,241.746 278.300 C 242.049 278.079,242.200 277.601,242.136 277.072 L 242.031 276.206 241.495 277.243 M240.050 282.140 C 240.023 282.372,239.456 283.708,238.792 285.109 C 238.127 286.510,237.355 288.148,237.075 288.750 C 236.795 289.352,236.392 290.125,236.178 290.469 C 235.965 290.813,235.240 292.008,234.567 293.125 C 233.895 294.242,232.506 296.204,231.481 297.484 C 230.456 298.764,229.458 300.170,229.262 300.609 C 229.066 301.047,228.238 302.381,227.422 303.571 C 226.605 304.762,225.938 306.063,225.938 306.462 L 225.938 307.188 226.563 306.563 C 226.906 306.219,227.188 305.656,227.188 305.313 C 227.188 304.965,227.396 304.688,227.656 304.688 C 227.914 304.688,228.125 304.492,228.125 304.252 C 228.125 304.013,228.336 303.736,228.594 303.637 C 228.852 303.538,229.063 303.171,229.063 302.822 C 229.063 302.473,229.203 302.188,229.375 302.188 C 229.547 302.188,229.688 301.903,229.688 301.556 C 229.688 301.200,230.438 300.196,231.406 299.259 C 232.352 298.343,233.125 297.362,233.125 297.078 C 233.125 296.795,233.266 296.563,233.438 296.563 C 233.609 296.563,233.750 296.232,233.750 295.828 C 233.750 295.380,234.116 294.813,234.688 294.375 C 235.203 293.980,235.629 293.431,235.635 293.156 C 235.648 292.520,236.366 291.563,236.831 291.563 C 237.039 291.563,237.188 291.040,237.188 290.313 C 237.188 289.625,237.301 289.063,237.440 289.063 C 237.755 289.063,238.750 286.847,238.750 286.145 C 238.750 285.859,238.961 285.625,239.219 285.625 C 239.506 285.625,239.688 285.333,239.688 284.870 C 239.688 284.454,239.839 284.064,240.025 284.002 C 240.216 283.938,240.306 283.418,240.231 282.804 C 240.159 282.207,240.078 281.908,240.050 282.140 M111.315 285.949 C 110.873 287.386,110.906 287.593,111.515 287.217 C 111.761 287.065,111.879 286.513,111.819 285.801 L 111.719 284.634 111.315 285.949 M110.625 288.750 C 110.625 289.266,110.736 289.688,110.871 289.688 C 111.006 289.688,111.149 289.266,111.188 288.750 C 111.228 288.234,111.117 287.813,110.942 287.813 C 110.768 287.813,110.625 288.234,110.625 288.750 M109.629 292.813 C 108.833 295.406,108.650 296.563,109.038 296.563 C 109.223 296.563,109.375 296.051,109.375 295.425 C 109.375 294.751,109.575 294.141,109.867 293.928 C 110.206 293.680,110.327 293.186,110.257 292.331 L 110.156 291.094 109.629 292.813 M107.891 299.460 C 107.103 301.831,107.052 302.188,107.500 302.188 C 107.672 302.188,107.813 301.887,107.813 301.519 C 107.813 301.151,108.033 300.689,108.302 300.492 C 108.651 300.237,108.764 299.732,108.693 298.739 L 108.594 297.344 107.891 299.460 M106.211 304.219 C 105.932 304.734,105.597 305.508,105.465 305.938 C 105.334 306.367,104.965 307.054,104.645 307.464 C 103.851 308.481,103.872 310.800,104.688 312.031 L 105.308 312.969 105.310 311.641 C 105.312 310.667,105.187 310.313,104.844 310.313 C 104.552 310.313,104.375 310.017,104.375 309.531 C 104.375 309.045,104.552 308.750,104.844 308.750 C 105.130 308.750,105.313 308.459,105.313 308.002 C 105.313 307.591,105.523 307.173,105.781 307.074 C 106.039 306.976,106.250 306.621,106.250 306.286 C 106.250 305.951,106.402 305.626,106.588 305.565 C 106.773 305.503,106.878 304.964,106.821 304.367 L 106.717 303.281 106.211 304.219 M105.626 314.141 C 105.627 314.355,105.897 315.445,106.227 316.563 L 106.827 318.594 106.851 316.953 C 106.864 316.051,106.734 315.313,106.563 315.313 C 106.391 315.313,106.250 314.961,106.250 314.531 C 106.250 314.102,106.109 313.750,105.938 313.750 C 105.766 313.750,105.626 313.926,105.626 314.141 " stroke="black" stroke-width="20"></path></g></svg>